#!OML:ASF I:\golf\golf\golf 2\Subject 1\2002-09-07\Subject1.ASF
:FULLY-SPECIFIED
:DEGREES
545
root -5.74425 18.0576 -1.10005 -164.947 3.51119 -176.942
lowerback -4.747 8.56691 5.90044
upperback -5.02585 12.0386 2.54918
thorax -2.00228 6.19502 -0.187569
lowerneck -20.0602 -11.5796 -2.92021
upperneck 3.34561 -15.1714 3.49355
head 4.59109 -7.37898 0.0493064
rclavicle 4.21765e-014 4.29375e-014
rhumerus 46.6113 39.879 -79.5665
rradius 40.4939
rwrist -13.3434
rhand -33.2399 19.3233
rfingers 7.12502
rthumb -6.44581 -10.5587
lclavicle 4.21765e-014 4.29375e-014
lhumerus 32.6421 -6.05161 85.5962
lradius 36.436
lwrist 30.5421
lhand -3.84054 16.6306
lfingers 7.12502
lthumb -158.093 585.41
rfemur 6.38165 -5.02994 18.4988
rtibia 25.9293
rfoot 27.6161 -22.0772
rtoes 13.0577
lfemur -30.7196 -16.7205 -11.7343
ltibia 23.4848
lfoot 35.6795 -40.1418
ltoes 50.4365
546
root -5.74478 18.0587 -1.10071 -164.94 3.5379 -176.937
lowerback -4.5863 8.56672 5.9997
upperback -5.10152 12.0461 2.43825
thorax -2.12625 6.18728 -0.382727
lowerneck -20.1352 -11.5911 -2.88395
upperneck 3.51312 -15.2116 3.65429
head 4.6677 -7.38138 0.0768872
rclavicle 1.27051e-013 -1.74931e-014
rhumerus 45.5926 39.8017 -80.5802
rradius 40.0795
rwrist -13.4039
rhand -32.8799 18.7373
rfingers 7.12502
rthumb -6.09827 -11.155
lclavicle 1.27051e-013 -1.74931e-014
lhumerus 31.9864 -6.29537 85.6973
lradius 35.9427
lwrist 30.3224
lhand -4.29555 16.0248
lfingers 7.12502
lthumb -158.53 584.855
rfemur 6.39506 -5.01932 18.4904
rtibia 25.9076
rfoot 27.5831 -22.1502
rtoes 13.2002
lfemur -30.7199 -16.7243 -11.7361
ltibia 23.4841
lfoot 35.8505 -39.8402
ltoes 50.8135
547
root -5.74645 18.0597 -1.10191 -164.971 3.55216 -176.958
lowerback -4.38224 8.55631 6.11026
upperback -5.17464 12.0376 2.29771
thorax -2.26329 6.16782 -0.620787
lowerneck -20.2713 -11.5701 -2.70104
upperneck 3.69086 -15.234 3.70209
head 4.73615 -7.37973 0.0497835
rclavicle -3.27187e-014 -3.02153e-014
rhumerus 44.9764 39.939 -80.9968
rradius 39.6981
rwrist -14.0617
rhand -32.4665 18.445
rfingers 7.12502
rthumb -5.6991 -11.4584
lclavicle -3.27187e-014 -3.02153e-014
lhumerus 31.3137 -6.64263 85.6751
lradius 35.5784
lwrist 30.3537
lhand -5.03159 15.6272
lfingers 7.12502
lthumb -159.237 584.536
rfemur 6.45801 -5.03268 18.4492
rtibia 25.8761
rfoot 27.6133 -22.1387
rtoes 13.1446
lfemur -30.6774 -16.7634 -11.7726
ltibia 23.4787
lfoot 35.8815 -39.6705
ltoes 50.9671
548
root -5.74845 18.0612 -1.10132 -164.947 3.56639 -176.939
lowerback -4.24257 8.54197 6.25273
upperback -5.261 12.0244 2.16625
thorax -2.37576 6.14782 -0.85643
lowerneck -20.2677 -11.4796 -2.45692
upperneck 3.69979 -15.1744 3.67454
head 4.71777 -7.34966 0.0148289
rclavicle 2.0163e-013 9.70069e-014
rhumerus 44.7079 40.3371 -80.8234
rradius 39.4208
rwrist -15.2165
rhand -32.0437 18.4327
rfingers 7.12502
rthumb -5.29089 -11.4813
lclavicle 2.0163e-013 9.70069e-014
lhumerus 30.5519 -7.01079 85.6481
lradius 35.5398
lwrist 30.7053
lhand -6.04427 16.1269
lfingers 7.12502
lthumb -160.21 585.139
rfemur 6.45518 -5.02175 18.4649
rtibia 25.833
rfoot 27.6948 -22.0361
rtoes 12.7955
lfemur -30.6979 -16.8237 -11.727
ltibia 23.476
lfoot 35.6668 -39.6882
ltoes 50.7741
549
root -5.74927 18.0635 -1.10024 -164.901 3.61595 -176.96
lowerback -4.11867 8.5358 6.30938
upperback -5.36872 12.0266 2.03147
thorax -2.51688 6.13785 -1.05119
lowerneck -20.1993 -11.3954 -2.26078
upperneck 3.66526 -15.117 3.70117
head 4.68425 -7.32002 0.00694908
rclavicle 3.79679e-014 5.56597e-014
rhumerus 43.3566 40.0509 -82.4288
rradius 38.9152
rwrist -14.8012
rhand -31.354 18.2777
rfingers 7.12502
rthumb -4.62497 -11.6518
lclavicle 3.79679e-014 5.56597e-014
lhumerus 29.7264 -7.08307 85.8818
lradius 35.6066
lwrist 31.6355
lhand -6.82061 17.021
lfingers 7.12502
lthumb -160.957 586.109
rfemur 6.42265 -5.03248 18.4187
rtibia 25.7758
rfoot 27.7391 -21.9654
rtoes 12.7571
lfemur -30.746 -16.8734 -11.7173
ltibia 23.4806
lfoot 35.4559 -39.6403
ltoes 50.7433
550
root -5.75002 18.0664 -1.10182 -164.876 3.68091 -176.942
lowerback -4.02812 8.53998 6.36019
upperback -5.44761 12.0417 1.94593
thorax -2.6207 6.1377 -1.18484
lowerneck -20.1815 -11.3581 -2.12706
upperneck 3.71735 -15.1057 3.73319
head 4.69152 -7.30919 -0.00168649
rclavicle 1.23681e-014 2.38542e-014
rhumerus 41.5439 39.3541 -84.8286
rradius 38.2215
rwrist -13.4951
rhand -30.6078 18.3683
rfingers 7.12502
rthumb -3.90442 -11.5757
lclavicle 1.23681e-014 2.38542e-014
lhumerus 28.9298 -7.09853 86.242
lradius 35.4879
lwrist 31.7639
lhand -7.73291 17.9691
lfingers 7.12502
lthumb -161.834 587.141
rfemur 6.41428 -5.07267 18.3853
rtibia 25.7281
rfoot 27.7162 -21.9597
rtoes 12.9606
lfemur -30.7454 -16.8709 -11.6994
ltibia 23.4679
lfoot 35.2391 -39.6684
ltoes 50.7271
551
root -5.75253 18.0703 -1.10483 -164.836 3.76047 -176.931
lowerback -4.0427 8.55535 6.36733
upperback -5.46859 12.0594 1.9036
thorax -2.62306 6.14471 -1.22896
lowerneck -20.158 -11.3281 -2.04618
upperneck 3.75538 -15.0902 3.76287
head 4.69684 -7.29742 -0.00253842
rclavicle 1.86361e-017 -5.40694e-014
rhumerus 40.8328 39.4712 -85.3044
rradius 37.7856
rwrist -13.6747
rhand -30.4157 18.3302
rfingers 7.12502
rthumb -3.71886 -11.6171
lclavicle 1.86361e-017 -5.40694e-014
lhumerus 28.2356 -7.22066 86.5472
lradius 35.267
lwrist 31.5751
lhand -8.59602 19.081
lfingers 7.12502
lthumb -162.665 588.328
rfemur 6.3801 -5.08826 18.3355
rtibia 25.698
rfoot 27.7529 -21.8589
rtoes 13.3082
lfemur -30.7455 -16.8193 -11.721
ltibia 23.4357
lfoot 34.9278 -39.8902
ltoes 50.4684
552
root -5.75534 18.0732 -1.10741 -164.856 3.8679 -177.043
lowerback -4.10354 8.56056 6.17989
upperback -5.40418 12.0465 1.88772
thorax -2.55326 6.14198 -1.13308
lowerneck -20.1967 -11.2861 -1.99451
upperneck 3.80147 -15.0506 3.78636
head 4.71488 -7.27389 -0.00226114
rclavicle -8.75709e-014 1.59028e-015
rhumerus 40.5793 40.0441 -84.9929
rradius 37.5259
rwrist -14.459
rhand -30.7586 17.7655
rfingers 7.12502
rthumb -4.05003 -12.1757
lclavicle -8.75709e-014 1.59028e-015
lhumerus 27.5846 -7.5805 86.6884
lradius 35.1754
lwrist 31.7564
lhand -9.86979 19.9896
lfingers 7.12502
lthumb -163.891 589.34
rfemur 6.39665 -5.07698 18.1531
rtibia 25.6704
rfoot 27.8985 -21.7122
rtoes 13.9027
lfemur -30.6888 -16.8374 -11.877
ltibia 23.4122
lfoot 34.6307 -40.0098
ltoes 50.265
553
root -5.75736 18.0753 -1.10962 -164.886 3.93917 -177.109
lowerback -4.31059 8.55104 5.91086
upperback -5.24292 12.004 2.00221
thorax -2.34686 6.13557 -0.8331
lowerneck -20.2926 -11.252 -2.05745
upperneck 3.83657 -14.9884 3.77796
head 4.74253 -7.24237 0.00417266
rclavicle 6.10937e-014 5.725e-014
rhumerus 40.2406 40.5821 -84.8111
rradius 37.2696
rwrist -15.0586
rhand -31.2999 17.0407
rfingers 7.12502
rthumb -4.5727 -12.89
lclavicle 6.10937e-014 5.725e-014
lhumerus 27.0286 -7.7135 87.146
lradius 34.9113
lwrist 31.4047
lhand -11.4667 20.0772
lfingers 7.12502
lthumb -165.429 589.545
rfemur 6.418 -5.07216 18.0435
rtibia 25.659
rfoot 28.041 -21.7154
rtoes 14.2195
lfemur -30.6122 -16.8948 -11.9596
ltibia 23.3881
lfoot 34.2429 -40.1803
ltoes 49.9414
554
root -5.76014 18.0766 -1.1115 -164.854 3.97422 -177.082
lowerback -4.507 8.53963 5.80918
upperback -5.1426 11.9695 2.09533
thorax -2.17456 6.12883 -0.646734
lowerneck -20.3242 -11.2058 -2.08101
upperneck 3.82852 -14.919 3.75919
head 4.74322 -7.20995 0.00791487
rclavicle 1.09589e-013 3.02153e-014
rhumerus 39.7992 41.0114 -84.7965
rradius 36.9202
rwrist -15.6345
rhand -31.7505 16.7875
rfingers 7.12502
rthumb -5.0078 -13.1333
lclavicle 1.09589e-013 3.02153e-014
lhumerus 26.4649 -7.82197 87.6147
lradius 34.4577
lwrist 30.5213
lhand -13.2116 19.8649
lfingers 7.12502
lthumb -167.111 589.447
rfemur 6.37017 -5.10805 18.0338
rtibia 25.6627
rfoot 28.181 -21.6831
rtoes 14.1016
lfemur -30.5963 -16.8594 -11.959
ltibia 23.3563
lfoot 33.9225 -40.4161
ltoes 49.6693
